<?xml version="1.0" encoding="UTF-8" standalone="no"?>
<!-- Created with Inkscape (http://www.inkscape.org/) -->

<svg
   xmlns:dc="http://purl.org/dc/elements/1.1/"
   xmlns:cc="http://creativecommons.org/ns#"
   xmlns:rdf="http://www.w3.org/1999/02/22-rdf-syntax-ns#"
   xmlns:svg="http://www.w3.org/2000/svg"
   xmlns="http://www.w3.org/2000/svg"
   xmlns:sodipodi="http://sodipodi.sourceforge.net/DTD/sodipodi-0.dtd"
   xmlns:inkscape="http://www.inkscape.org/namespaces/inkscape"
   version="1.1"
   id="svg2181"
   xml:space="preserve"
   width="800"
   height="800"
   viewBox="0 0 800 800"
   sodipodi:docname="sun-shape-publicdomainvectors.org [Converted].svg"
   inkscape:version="0.92.4 (5da689c313, 2019-01-14)"><metadata
     id="metadata2187"><rdf:RDF><cc:Work
         rdf:about=""><dc:format>image/svg+xml</dc:format><dc:type
           rdf:resource="http://purl.org/dc/dcmitype/StillImage" /><dc:title /></cc:Work></rdf:RDF></metadata><defs
     id="defs2185"><clipPath
       clipPathUnits="userSpaceOnUse"
       id="clipPath2197"><path
         d="M 0,600 H 600 V 0 H 0 Z"
         id="path2195"
         inkscape:connector-curvature="0" /></clipPath></defs><sodipodi:namedview
     pagecolor="#ffffff"
     bordercolor="#666666"
     borderopacity="1"
     objecttolerance="10"
     gridtolerance="10"
     guidetolerance="10"
     inkscape:pageopacity="0"
     inkscape:pageshadow="2"
     inkscape:window-width="1920"
     inkscape:window-height="1018"
     id="namedview2183"
     showgrid="false"
     inkscape:zoom="0.85188776"
     inkscape:cx="262.17884"
     inkscape:cy="372.88136"
     inkscape:window-x="-8"
     inkscape:window-y="-8"
     inkscape:window-maximized="1"
     inkscape:current-layer="g2189" /><g
     id="g2189"
     inkscape:groupmode="layer"
     inkscape:label="sun-shape-publicdomainvectors.org [Converted]"
     transform="matrix(1.3333333,0,0,-1.3333333,0,800)"><g
       id="g2191"
       transform="matrix(1.0666453,0,0,1.0666453,-26.372463,-38.419044)"><g
         id="g2193"
         clip-path="url(#clipPath2197)"><path
           d="m 320.742,321.203 c 0,0 9.368,-3.9 33.223,-8.627 18.011,-3.568 39.183,-9.113 60.827,-12.706 21.188,-3.505 42.534,1.149 57.888,4.472 21.899,4.727 41.253,7.216 56.141,3.495 15.215,-3.814 24.852,-13.215 24.852,-13.215 0,0 -7.098,13.309 -21.79,20.88 -14.117,7.26 -34.03,4.081 -63.356,-0.437 -19.042,-2.927 -43.397,-1.918 -70.374,3.054 16.516,14.236 36.44,14.168 51.729,17.281 15.939,3.249 26.706,6.835 26.706,6.835 0,0 -7.668,-1.977 -18.934,-3.201 -11.114,-1.209 -25.56,-0.143 -38.867,-1.987 -20.788,-3.298 -25.945,-9.574 -50.29,-14.469 -9.801,-3.227 -21.538,-1.724 -31.142,-1.518 -9.513,0.197 -16.613,0.143 -16.613,0.143"
           style="fill:#231f20;fill-opacity:1;fill-rule:nonzero;stroke:none"
           id="path2199"
           inkscape:connector-curvature="0" /><path
           d="m 320.742,321.203 c 0,0 9.368,-3.9 33.223,-8.627 18.011,-3.568 39.183,-9.113 60.827,-12.706 21.188,-3.505 42.534,1.149 57.888,4.472 21.899,4.727 41.253,7.216 56.141,3.495 15.215,-3.814 24.852,-13.215 24.852,-13.215 0,0 -7.098,13.309 -21.79,20.88 -14.117,7.26 -34.03,4.081 -63.356,-0.437 -19.042,-2.927 -43.397,-1.918 -70.374,3.054 16.516,14.236 36.44,14.168 51.729,17.281 15.939,3.249 26.706,6.835 26.706,6.835 0,0 -7.668,-1.977 -18.934,-3.201 -11.114,-1.209 -25.56,-0.143 -38.867,-1.987 -20.788,-3.298 -25.945,-9.574 -50.29,-14.469 -9.801,-3.227 -21.538,-1.724 -31.142,-1.518 -9.513,0.197 -16.613,0.143 -16.613,0.143 z"
           style="fill:none;stroke:#231f20;stroke-width:0.46900001;stroke-linecap:butt;stroke-linejoin:miter;stroke-miterlimit:4;stroke-dasharray:none;stroke-opacity:1"
           id="path2201"
           inkscape:connector-curvature="0" /><path
           d="m 320.882,329.13 c 0,0 10.136,0.553 33.678,6.642 17.778,4.599 39.257,8.79 60.317,14.945 20.611,6.034 37.82,19.487 50.216,29.143 17.678,13.759 34.033,24.401 49.06,27.508 15.364,3.167 28.125,-1.125 28.125,-1.125 0,0 -12.166,8.914 -28.687,9.361 -15.869,0.414 -32.433,-11.089 -56.894,-27.885 -15.884,-10.895 -38.264,-20.554 -64.732,-27.782 8.708,19.995 26.688,28.578 39.109,38.017 12.951,9.841 21.1,17.741 21.1,17.741 0,0 -6.057,-5.107 -15.673,-11.097 -9.49,-5.91 -22.967,-11.22 -34.155,-18.655 -17.298,-11.99 -19.222,-19.88 -39.032,-34.855 -7.431,-7.162 -18.659,-10.895 -27.399,-14.88 -8.658,-3.947 -15.033,-7.078 -15.033,-7.078"
           style="fill:#231f20;fill-opacity:1;fill-rule:nonzero;stroke:none"
           id="path2203"
           inkscape:connector-curvature="0" /><path
           d="m 320.882,329.13 c 0,0 10.136,0.553 33.678,6.642 17.778,4.599 39.257,8.79 60.317,14.945 20.611,6.034 37.82,19.487 50.216,29.143 17.678,13.759 34.033,24.401 49.06,27.508 15.364,3.167 28.125,-1.125 28.125,-1.125 0,0 -12.166,8.914 -28.687,9.361 -15.869,0.414 -32.433,-11.089 -56.894,-27.885 -15.884,-10.895 -38.264,-20.554 -64.732,-27.782 8.708,19.995 26.688,28.578 39.109,38.017 12.951,9.841 21.1,17.741 21.1,17.741 0,0 -6.057,-5.107 -15.673,-11.097 -9.49,-5.91 -22.967,-11.22 -34.155,-18.655 -17.298,-11.99 -19.222,-19.88 -39.032,-34.855 -7.431,-7.162 -18.659,-10.895 -27.399,-14.88 -8.658,-3.947 -15.033,-7.078 -15.033,-7.078 z"
           style="fill:none;stroke:#231f20;stroke-width:0.46900001;stroke-linecap:butt;stroke-linejoin:miter;stroke-miterlimit:4;stroke-dasharray:none;stroke-opacity:1"
           id="path2205"
           inkscape:connector-curvature="0" /><path
           d="m 317.574,336.334 c 0,0 8.888,4.894 27.459,20.596 14.021,11.853 31.557,24.951 47.856,39.631 15.954,14.384 25.623,33.969 32.6,48.047 9.955,20.068 20.074,36.751 32.27,46.072 12.47,9.52 25.826,11.189 25.826,11.189 0,0 -14.831,2.754 -29.913,-4.014 -14.472,-6.509 -24.406,-24.063 -39.157,-49.806 -9.582,-16.711 -25.557,-35.125 -46.265,-53.117 -0.835,21.789 11.644,37.323 18.74,51.218 7.398,14.488 11.311,25.139 11.311,25.139 0,0 -3.239,-7.228 -9.306,-16.797 -5.986,-9.443 -15.824,-20.074 -22.679,-31.628 -10.383,-18.309 -8.693,-26.251 -20.044,-48.337 -3.586,-9.677 -12.083,-17.915 -18.227,-25.297 -6.088,-7.313 -10.471,-12.896 -10.471,-12.896"
           style="fill:#231f20;fill-opacity:1;fill-rule:nonzero;stroke:none"
           id="path2207"
           inkscape:connector-curvature="0" /><path
           d="m 317.574,336.334 c 0,0 8.888,4.894 27.459,20.596 14.021,11.853 31.557,24.951 47.856,39.631 15.954,14.384 25.623,33.969 32.6,48.047 9.955,20.068 20.074,36.751 32.27,46.072 12.47,9.52 25.826,11.189 25.826,11.189 0,0 -14.831,2.754 -29.913,-4.014 -14.472,-6.509 -24.406,-24.063 -39.157,-49.806 -9.582,-16.711 -25.557,-35.125 -46.265,-53.117 -0.835,21.789 11.644,37.323 18.74,51.218 7.398,14.488 11.311,25.139 11.311,25.139 0,0 -3.239,-7.228 -9.306,-16.797 -5.986,-9.443 -15.824,-20.074 -22.679,-31.628 -10.383,-18.309 -8.693,-26.251 -20.044,-48.337 -3.586,-9.677 -12.083,-17.915 -18.227,-25.297 -6.088,-7.313 -10.471,-12.896 -10.471,-12.896 z"
           style="fill:none;stroke:#231f20;stroke-width:0.46900001;stroke-linecap:butt;stroke-linejoin:miter;stroke-miterlimit:4;stroke-dasharray:none;stroke-opacity:1"
           id="path2209"
           inkscape:connector-curvature="0" /><path
           d="m 311.464,341.385 c 0,0 5.886,8.27 15.804,30.471 7.487,16.764 17.605,36.174 25.921,56.473 8.135,19.879 8.348,41.722 8.526,57.433 0.262,22.401 2.14,41.822 9.08,55.509 7.105,13.987 18.418,21.289 18.418,21.289 0,0 -14.559,-3.956 -25.207,-16.596 -10.22,-12.147 -11.552,-32.27 -13.672,-61.865 -1.383,-19.213 -7.788,-42.733 -18.635,-67.931 -10.204,19.272 -5.707,38.683 -5.34,54.279 0.38,16.263 -0.718,27.556 -0.718,27.556 0,0 0.218,-7.917 -1.095,-19.17 -1.296,-11.104 -5.547,-24.954 -6.71,-38.334 -1.409,-21.003 3.558,-27.427 2.914,-52.248 0.967,-10.277 -3.114,-21.382 -5.447,-30.701 -2.312,-9.229 -3.839,-16.165 -3.839,-16.165"
           style="fill:#231f20;fill-opacity:1;fill-rule:nonzero;stroke:none"
           id="path2211"
           inkscape:connector-curvature="0" /><path
           d="m 311.464,341.385 c 0,0 5.886,8.27 15.804,30.471 7.487,16.764 17.605,36.174 25.921,56.473 8.135,19.879 8.348,41.722 8.526,57.433 0.262,22.401 2.14,41.822 9.08,55.509 7.105,13.987 18.418,21.289 18.418,21.289 0,0 -14.559,-3.956 -25.207,-16.596 -10.22,-12.147 -11.552,-32.27 -13.672,-61.865 -1.383,-19.213 -7.788,-42.733 -18.635,-67.931 -10.204,19.272 -5.707,38.683 -5.34,54.279 0.38,16.263 -0.718,27.556 -0.718,27.556 0,0 0.218,-7.917 -1.095,-19.17 -1.296,-11.104 -5.547,-24.954 -6.71,-38.334 -1.409,-21.003 3.558,-27.427 2.914,-52.248 0.967,-10.277 -3.114,-21.382 -5.447,-30.701 -2.312,-9.229 -3.839,-16.165 -3.839,-16.165 z"
           style="fill:none;stroke:#231f20;stroke-width:0.46900001;stroke-linecap:butt;stroke-linejoin:miter;stroke-miterlimit:4;stroke-dasharray:none;stroke-opacity:1"
           id="path2213"
           inkscape:connector-curvature="0" /><path
           d="m 303.769,343.289 c 0,0 1.715,10.001 1.017,34.309 -0.526,18.352 0.167,40.228 -1.148,62.128 -1.296,21.439 -10.582,41.212 -17.238,55.443 -9.482,20.296 -16.217,38.61 -15.902,53.954 0.33,15.684 7.356,27.17 7.356,27.17 0,0 -11.399,-9.879 -15.511,-25.889 -3.935,-15.377 3.595,-34.087 14.524,-61.671 7.091,-17.913 11.527,-41.881 12.684,-69.291 -17.556,12.938 -21.922,32.378 -28.359,46.589 -6.714,14.816 -12.604,24.514 -12.604,24.514 0,0 3.633,-7.036 7.331,-17.747 3.65,-10.566 5.827,-24.887 10.587,-37.448 7.841,-19.535 15.107,-23.165 25.294,-45.809 5.33,-8.84 6.473,-20.615 8.411,-30.026 1.924,-9.317 3.558,-16.226 3.558,-16.226"
           style="fill:#231f20;fill-opacity:1;fill-rule:nonzero;stroke:none"
           id="path2215"
           inkscape:connector-curvature="0" /><path
           d="m 303.769,343.289 c 0,0 1.715,10.001 1.017,34.309 -0.526,18.352 0.167,40.228 -1.148,62.128 -1.296,21.439 -10.582,41.212 -17.238,55.443 -9.482,20.296 -16.217,38.61 -15.902,53.954 0.33,15.684 7.356,27.17 7.356,27.17 0,0 -11.399,-9.879 -15.511,-25.889 -3.935,-15.377 3.595,-34.087 14.524,-61.671 7.091,-17.913 11.527,-41.881 12.684,-69.291 -17.556,12.938 -21.922,32.378 -28.359,46.589 -6.714,14.816 -12.604,24.514 -12.604,24.514 0,0 3.633,-7.036 7.331,-17.747 3.65,-10.566 5.827,-24.887 10.587,-37.448 7.841,-19.535 15.107,-23.165 25.294,-45.809 5.33,-8.84 6.473,-20.615 8.411,-30.026 1.924,-9.317 3.558,-16.226 3.558,-16.226 z"
           style="fill:none;stroke:#231f20;stroke-width:0.46900001;stroke-linecap:butt;stroke-linejoin:miter;stroke-miterlimit:4;stroke-dasharray:none;stroke-opacity:1"
           id="path2217"
           inkscape:connector-curvature="0" /><path
           d="m 296.009,341.665 c 0,0 -2.793,9.752 -13.97,31.351 -8.438,16.308 -17.304,36.316 -27.99,55.477 -10.47,18.754 -27.416,32.539 -39.588,42.474 -17.349,14.172 -31.362,27.747 -37.736,41.709 -6.506,14.277 -5.161,27.673 -5.161,27.673 0,0 -5.984,-13.846 -2.742,-30.055 3.127,-15.564 18.028,-29.151 39.844,-49.262 14.161,-13.06 28.557,-32.73 41.491,-56.926 -21.428,4.038 -33.798,19.659 -45.765,29.67 -12.478,10.435 -21.993,16.62 -21.993,16.62 0,0 6.328,-4.766 14.307,-12.81 7.876,-7.937 16.048,-19.895 25.787,-29.146 15.541,-14.198 23.66,-14.317 42.666,-30.297 8.637,-5.653 14.778,-15.767 20.606,-23.403 5.774,-7.56 10.244,-13.075 10.244,-13.075"
           style="fill:#231f20;fill-opacity:1;fill-rule:nonzero;stroke:none"
           id="path2219"
           inkscape:connector-curvature="0" /><path
           d="m 296.009,341.665 c 0,0 -2.793,9.752 -13.97,31.351 -8.438,16.308 -17.304,36.316 -27.99,55.477 -10.47,18.754 -27.416,32.539 -39.588,42.474 -17.349,14.172 -31.362,27.747 -37.736,41.709 -6.506,14.277 -5.161,27.673 -5.161,27.673 0,0 -5.984,-13.846 -2.742,-30.055 3.127,-15.564 18.028,-29.151 39.844,-49.262 14.161,-13.06 28.557,-32.73 41.491,-56.926 -21.428,4.038 -33.798,19.659 -45.765,29.67 -12.478,10.435 -21.993,16.62 -21.993,16.62 0,0 6.328,-4.766 14.307,-12.81 7.876,-7.937 16.048,-19.895 25.787,-29.146 15.541,-14.198 23.66,-14.317 42.666,-30.297 8.637,-5.653 14.778,-15.767 20.606,-23.403 5.774,-7.56 10.244,-13.075 10.244,-13.075 z"
           style="fill:none;stroke:#231f20;stroke-width:0.46900001;stroke-linecap:butt;stroke-linejoin:miter;stroke-miterlimit:4;stroke-dasharray:none;stroke-opacity:1"
           id="path2221"
           inkscape:connector-curvature="0" /><path
           d="m 289.724,336.832 c 0,0 -6.75,7.578 -26.19,22.187 -14.679,11.031 -31.348,25.212 -49.29,37.839 -17.571,12.351 -38.819,17.421 -54.096,21.089 -21.78,5.243 -40.294,11.394 -52.096,21.207 -12.056,10.041 -16.656,22.692 -16.656,22.692 0,0 0.616,-15.07 10.57,-28.268 9.567,-12.662 28.892,-18.443 57.272,-27.094 18.424,-5.624 39.929,-17.101 62.08,-33.285 -21.059,-5.662 -38.981,3.047 -54.105,6.874 -15.771,3.987 -27.025,5.429 -27.025,5.429 0,0 7.767,-1.544 18.446,-5.331 10.539,-3.736 23.093,-10.962 35.881,-15.073 20.161,-6.048 27.527,-2.633 51.586,-8.785 10.232,-1.345 20.154,-7.794 28.719,-12.143 8.483,-4.308 14.904,-7.338 14.904,-7.338"
           style="fill:#231f20;fill-opacity:1;fill-rule:nonzero;stroke:none"
           id="path2223"
           inkscape:connector-curvature="0" /><path
           d="m 289.724,336.832 c 0,0 -6.75,7.578 -26.19,22.187 -14.679,11.031 -31.348,25.212 -49.29,37.839 -17.571,12.351 -38.819,17.421 -54.096,21.089 -21.78,5.243 -40.294,11.394 -52.096,21.207 -12.056,10.041 -16.656,22.692 -16.656,22.692 0,0 0.616,-15.07 10.57,-28.268 9.567,-12.662 28.892,-18.443 57.272,-27.094 18.424,-5.624 39.929,-17.101 62.08,-33.285 -21.059,-5.662 -38.981,3.047 -54.105,6.874 -15.771,3.987 -27.025,5.429 -27.025,5.429 0,0 7.767,-1.544 18.446,-5.331 10.539,-3.736 23.093,-10.962 35.881,-15.073 20.161,-6.048 27.527,-2.633 51.586,-8.785 10.232,-1.345 20.154,-7.794 28.719,-12.143 8.483,-4.308 14.904,-7.338 14.904,-7.338 z"
           style="fill:none;stroke:#231f20;stroke-width:0.46900001;stroke-linecap:butt;stroke-linejoin:miter;stroke-miterlimit:4;stroke-dasharray:none;stroke-opacity:1"
           id="path2225"
           inkscape:connector-curvature="0" /><path
           d="m 286.156,329.752 c 0,0 -9.369,3.899 -33.223,8.625 -18.01,3.57 -39.182,9.116 -60.825,12.707 -21.191,3.508 -42.533,-1.146 -57.892,-4.47 -21.894,-4.726 -41.247,-7.218 -56.135,-3.497 -15.22,3.813 -24.854,13.219 -24.854,13.219 0,0 7.094,-13.313 21.789,-20.884 14.116,-7.26 34.032,-4.081 63.356,0.439 19.041,2.926 43.394,1.918 70.374,-3.055 -16.517,-14.237 -36.442,-14.165 -51.729,-17.282 -15.939,-3.25 -26.706,-6.834 -26.706,-6.834 0,0 7.67,1.977 18.934,3.201 11.115,1.208 25.562,0.143 38.867,1.99 20.787,3.295 25.946,9.57 50.288,14.466 9.804,3.227 21.539,1.724 31.144,1.519 9.512,-0.199 16.612,-0.144 16.612,-0.144"
           style="fill:#231f20;fill-opacity:1;fill-rule:nonzero;stroke:none"
           id="path2227"
           inkscape:connector-curvature="0" /><path
           d="m 286.156,329.752 c 0,0 -9.369,3.899 -33.223,8.625 -18.01,3.57 -39.182,9.116 -60.825,12.707 -21.191,3.508 -42.533,-1.146 -57.892,-4.47 -21.894,-4.726 -41.247,-7.218 -56.135,-3.497 -15.22,3.813 -24.854,13.219 -24.854,13.219 0,0 7.094,-13.313 21.789,-20.884 14.116,-7.26 34.032,-4.081 63.356,0.439 19.041,2.926 43.394,1.918 70.374,-3.055 -16.517,-14.237 -36.442,-14.165 -51.729,-17.282 -15.939,-3.25 -26.706,-6.834 -26.706,-6.834 0,0 7.67,1.977 18.934,3.201 11.115,1.208 25.562,0.143 38.867,1.99 20.787,3.295 25.946,9.57 50.288,14.466 9.804,3.227 21.539,1.724 31.144,1.519 9.512,-0.199 16.612,-0.144 16.612,-0.144 z"
           style="fill:none;stroke:#231f20;stroke-width:0.46900001;stroke-linecap:butt;stroke-linejoin:miter;stroke-miterlimit:4;stroke-dasharray:none;stroke-opacity:1"
           id="path2229"
           inkscape:connector-curvature="0" /><path
           d="m 286.015,321.825 c 0,0 -10.134,-0.554 -33.676,-6.642 -17.777,-4.599 -39.257,-8.788 -60.316,-14.945 -20.611,-6.033 -37.822,-19.487 -50.218,-29.143 -17.677,-13.76 -34.031,-24.403 -49.06,-27.508 -15.366,-3.167 -28.127,1.124 -28.127,1.124 0,0 12.167,-8.911 28.692,-9.358 15.867,-0.418 32.432,11.091 56.892,27.882 15.883,10.899 38.265,20.557 64.731,27.784 -8.706,-19.997 -26.688,-28.579 -39.109,-38.017 -12.951,-9.844 -21.095,-17.742 -21.095,-17.742 0,0 6.05,5.107 15.668,11.097 9.491,5.912 22.97,11.218 34.156,18.656 17.3,11.991 19.223,19.88 39.031,34.852 7.432,7.163 18.659,10.898 27.4,14.883 8.657,3.948 15.031,7.077 15.031,7.077"
           style="fill:#231f20;fill-opacity:1;fill-rule:nonzero;stroke:none"
           id="path2231"
           inkscape:connector-curvature="0" /><path
           d="m 286.015,321.825 c 0,0 -10.134,-0.554 -33.676,-6.642 -17.777,-4.599 -39.257,-8.788 -60.316,-14.945 -20.611,-6.033 -37.822,-19.487 -50.218,-29.143 -17.677,-13.76 -34.031,-24.403 -49.06,-27.508 -15.366,-3.167 -28.127,1.124 -28.127,1.124 0,0 12.167,-8.911 28.692,-9.358 15.867,-0.418 32.432,11.091 56.892,27.882 15.883,10.899 38.265,20.557 64.731,27.784 -8.706,-19.997 -26.688,-28.579 -39.109,-38.017 -12.951,-9.844 -21.095,-17.742 -21.095,-17.742 0,0 6.05,5.107 15.668,11.097 9.491,5.912 22.97,11.218 34.156,18.656 17.3,11.991 19.223,19.88 39.031,34.852 7.432,7.163 18.659,10.898 27.4,14.883 8.657,3.948 15.031,7.077 15.031,7.077 z"
           style="fill:none;stroke:#231f20;stroke-width:0.46900001;stroke-linecap:butt;stroke-linejoin:miter;stroke-miterlimit:4;stroke-dasharray:none;stroke-opacity:1"
           id="path2233"
           inkscape:connector-curvature="0" /><path
           d="m 289.325,314.621 c 0,0 -8.889,-4.894 -27.458,-20.596 -14.021,-11.855 -31.556,-24.954 -47.857,-39.629 -15.955,-14.387 -25.622,-33.973 -32.601,-48.049 -9.956,-20.068 -20.075,-36.751 -32.266,-46.073 -12.471,-9.519 -25.829,-11.186 -25.829,-11.186 0,0 14.83,-2.757 29.91,4.01 14.477,6.511 24.41,24.066 39.161,49.808 9.583,16.709 25.556,35.122 46.263,53.117 0.833,-21.791 -11.644,-37.322 -18.739,-51.218 -7.398,-14.489 -11.31,-25.14 -11.31,-25.14 0,0 3.236,7.229 9.303,16.8 5.987,9.439 15.826,20.07 22.68,31.626 10.384,18.306 8.691,26.252 20.044,48.337 3.587,9.678 12.083,17.916 18.228,25.298 6.089,7.312 10.471,12.895 10.471,12.895"
           style="fill:#231f20;fill-opacity:1;fill-rule:nonzero;stroke:none"
           id="path2235"
           inkscape:connector-curvature="0" /><path
           d="m 289.325,314.621 c 0,0 -8.889,-4.894 -27.458,-20.596 -14.021,-11.855 -31.556,-24.954 -47.857,-39.629 -15.955,-14.387 -25.622,-33.973 -32.601,-48.049 -9.956,-20.068 -20.075,-36.751 -32.266,-46.073 -12.471,-9.519 -25.829,-11.186 -25.829,-11.186 0,0 14.83,-2.757 29.91,4.01 14.477,6.511 24.41,24.066 39.161,49.808 9.583,16.709 25.556,35.122 46.263,53.117 0.833,-21.791 -11.644,-37.322 -18.739,-51.218 -7.398,-14.489 -11.31,-25.14 -11.31,-25.14 0,0 3.236,7.229 9.303,16.8 5.987,9.439 15.826,20.07 22.68,31.626 10.384,18.306 8.691,26.252 20.044,48.337 3.587,9.678 12.083,17.916 18.228,25.298 6.089,7.312 10.471,12.895 10.471,12.895 z"
           style="fill:none;stroke:#231f20;stroke-width:0.46900001;stroke-linecap:butt;stroke-linejoin:miter;stroke-miterlimit:4;stroke-dasharray:none;stroke-opacity:1"
           id="path2237"
           inkscape:connector-curvature="0" /><path
           d="m 295.434,309.57 c 0,0 -5.885,-8.267 -15.802,-30.47 -7.489,-16.765 -17.606,-36.175 -25.923,-56.475 -8.133,-19.879 -8.346,-41.72 -8.524,-57.435 -0.264,-22.397 -2.143,-41.82 -9.081,-55.507 -7.106,-13.985 -18.419,-21.288 -18.419,-21.288 0,0 14.557,3.955 25.207,16.595 10.218,12.148 11.553,32.27 13.672,61.867 1.383,19.212 7.787,42.734 18.639,67.931 10.201,-19.271 5.702,-38.683 5.337,-54.278 -0.378,-16.265 0.716,-27.557 0.716,-27.557 0,0 -0.218,7.918 1.095,19.169 1.297,11.107 5.55,24.954 6.712,38.338 1.41,20.997 -3.56,27.421 -2.916,52.241 -0.964,10.28 3.115,21.385 5.449,30.703 2.312,9.232 3.838,16.166 3.838,16.166"
           style="fill:#231f20;fill-opacity:1;fill-rule:nonzero;stroke:none"
           id="path2239"
           inkscape:connector-curvature="0" /><path
           d="m 295.434,309.57 c 0,0 -5.885,-8.267 -15.802,-30.47 -7.489,-16.765 -17.606,-36.175 -25.923,-56.475 -8.133,-19.879 -8.346,-41.72 -8.524,-57.435 -0.264,-22.397 -2.143,-41.82 -9.081,-55.507 -7.106,-13.985 -18.419,-21.288 -18.419,-21.288 0,0 14.557,3.955 25.207,16.595 10.218,12.148 11.553,32.27 13.672,61.867 1.383,19.212 7.787,42.734 18.639,67.931 10.201,-19.271 5.702,-38.683 5.337,-54.278 -0.378,-16.265 0.716,-27.557 0.716,-27.557 0,0 -0.218,7.918 1.095,19.169 1.297,11.107 5.55,24.954 6.712,38.338 1.41,20.997 -3.56,27.421 -2.916,52.241 -0.964,10.28 3.115,21.385 5.449,30.703 2.312,9.232 3.838,16.166 3.838,16.166 z"
           style="fill:none;stroke:#231f20;stroke-width:0.46900001;stroke-linecap:butt;stroke-linejoin:miter;stroke-miterlimit:4;stroke-dasharray:none;stroke-opacity:1"
           id="path2241"
           inkscape:connector-curvature="0" /><path
           d="m 303.132,307.667 c 0,0 -1.719,-10.002 -1.018,-34.308 0.527,-18.353 -0.167,-40.231 1.149,-62.13 1.296,-21.439 10.581,-41.211 17.236,-55.442 9.481,-20.297 16.218,-38.608 15.903,-53.955 -0.334,-15.682 -7.355,-27.172 -7.355,-27.172 0,0 11.398,9.881 15.507,25.892 3.938,15.379 -3.592,34.089 -14.525,61.672 -7.088,17.912 -11.524,41.878 -12.679,69.291 17.553,-12.937 21.921,-32.38 28.357,-46.59 6.715,-14.817 12.604,-24.518 12.604,-24.518 0,0 -3.632,7.038 -7.332,17.748 -3.65,10.569 -5.829,24.888 -10.587,37.45 -7.839,19.533 -15.105,23.166 -25.293,45.808 -5.328,8.84 -6.474,20.616 -8.412,30.026 -1.923,9.317 -3.555,16.228 -3.555,16.228"
           style="fill:#231f20;fill-opacity:1;fill-rule:nonzero;stroke:none"
           id="path2243"
           inkscape:connector-curvature="0" /><path
           d="m 303.132,307.667 c 0,0 -1.719,-10.002 -1.018,-34.308 0.527,-18.353 -0.167,-40.231 1.149,-62.13 1.296,-21.439 10.581,-41.211 17.236,-55.442 9.481,-20.297 16.218,-38.608 15.903,-53.955 -0.334,-15.682 -7.355,-27.172 -7.355,-27.172 0,0 11.398,9.881 15.507,25.892 3.938,15.379 -3.592,34.089 -14.525,61.672 -7.088,17.912 -11.524,41.878 -12.679,69.291 17.553,-12.937 21.921,-32.38 28.357,-46.59 6.715,-14.817 12.604,-24.518 12.604,-24.518 0,0 -3.632,7.038 -7.332,17.748 -3.65,10.569 -5.829,24.888 -10.587,37.45 -7.839,19.533 -15.105,23.166 -25.293,45.808 -5.328,8.84 -6.474,20.616 -8.412,30.026 -1.923,9.317 -3.555,16.228 -3.555,16.228 z"
           style="fill:none;stroke:#231f20;stroke-width:0.46900001;stroke-linecap:butt;stroke-linejoin:miter;stroke-miterlimit:4;stroke-dasharray:none;stroke-opacity:1"
           id="path2245"
           inkscape:connector-curvature="0" /><path
           d="m 310.892,309.292 c 0,0 2.792,-9.754 13.968,-31.352 8.439,-16.307 17.304,-36.318 27.99,-55.48 10.47,-18.752 27.415,-32.539 39.589,-42.473 17.346,-14.17 31.36,-27.747 37.734,-41.709 6.506,-14.277 5.161,-27.672 5.161,-27.672 0,0 5.984,13.846 2.739,30.057 -3.122,15.56 -18.024,29.15 -39.839,49.258 -14.162,13.061 -28.557,32.733 -41.492,56.928 21.427,-4.037 33.797,-19.661 45.766,-29.668 12.477,-10.437 21.992,-16.621 21.992,-16.621 0,0 -6.33,4.765 -14.307,12.808 -7.873,7.939 -16.047,19.895 -25.788,29.15 -15.538,14.193 -23.658,14.314 -42.663,30.295 -8.639,5.652 -14.778,15.764 -20.607,23.402 -5.778,7.56 -10.243,13.077 -10.243,13.077"
           style="fill:#231f20;fill-opacity:1;fill-rule:nonzero;stroke:none"
           id="path2247"
           inkscape:connector-curvature="0" /><path
           d="m 310.892,309.292 c 0,0 2.792,-9.754 13.968,-31.352 8.439,-16.307 17.304,-36.318 27.99,-55.48 10.47,-18.752 27.415,-32.539 39.589,-42.473 17.346,-14.17 31.36,-27.747 37.734,-41.709 6.506,-14.277 5.161,-27.672 5.161,-27.672 0,0 5.984,13.846 2.739,30.057 -3.122,15.56 -18.024,29.15 -39.839,49.258 -14.162,13.061 -28.557,32.733 -41.492,56.928 21.427,-4.037 33.797,-19.661 45.766,-29.668 12.477,-10.437 21.992,-16.621 21.992,-16.621 0,0 -6.33,4.765 -14.307,12.808 -7.873,7.939 -16.047,19.895 -25.788,29.15 -15.538,14.193 -23.658,14.314 -42.663,30.295 -8.639,5.652 -14.778,15.764 -20.607,23.402 -5.778,7.56 -10.243,13.077 -10.243,13.077 z"
           style="fill:none;stroke:#231f20;stroke-width:0.46900001;stroke-linecap:butt;stroke-linejoin:miter;stroke-miterlimit:4;stroke-dasharray:none;stroke-opacity:1"
           id="path2249"
           inkscape:connector-curvature="0" /><path
           d="m 317.174,314.123 c 0,0 6.752,-7.577 26.191,-22.185 14.678,-11.033 31.348,-25.215 49.29,-37.841 17.57,-12.354 38.817,-17.42 54.097,-21.089 21.775,-5.244 40.297,-11.393 52.096,-21.205 12.057,-10.041 16.653,-22.696 16.653,-22.696 0,0 -0.615,15.076 -10.568,28.271 -9.571,12.663 -28.89,18.445 -57.27,27.092 -18.425,5.624 -39.931,17.104 -62.082,33.286 21.059,5.661 38.979,-3.045 54.106,-6.873 15.768,-3.989 27.026,-5.43 27.026,-5.43 0,0 -7.77,1.548 -18.449,5.33 -10.535,3.737 -23.09,10.962 -35.878,15.073 -20.161,6.049 -27.531,2.635 -51.59,8.787 -10.231,1.343 -20.151,7.793 -28.718,12.141 -8.482,4.308 -14.904,7.339 -14.904,7.339"
           style="fill:#231f20;fill-opacity:1;fill-rule:nonzero;stroke:none"
           id="path2251"
           inkscape:connector-curvature="0" /><path
           d="m 317.174,314.123 c 0,0 6.752,-7.577 26.191,-22.185 14.678,-11.033 31.348,-25.215 49.29,-37.841 17.57,-12.354 38.817,-17.42 54.097,-21.089 21.775,-5.244 40.297,-11.393 52.096,-21.205 12.057,-10.041 16.653,-22.696 16.653,-22.696 0,0 -0.615,15.076 -10.568,28.271 -9.571,12.663 -28.89,18.445 -57.27,27.092 -18.425,5.624 -39.931,17.104 -62.082,33.286 21.059,5.661 38.979,-3.045 54.106,-6.873 15.768,-3.989 27.026,-5.43 27.026,-5.43 0,0 -7.77,1.548 -18.449,5.33 -10.535,3.737 -23.09,10.962 -35.878,15.073 -20.161,6.049 -27.531,2.635 -51.59,8.787 -10.231,1.343 -20.151,7.793 -28.718,12.141 -8.482,4.308 -14.904,7.339 -14.904,7.339 z"
           style="fill:none;stroke:#231f20;stroke-width:0.46900001;stroke-linecap:butt;stroke-linejoin:miter;stroke-miterlimit:4;stroke-dasharray:none;stroke-opacity:1"
           id="path2253"
           inkscape:connector-curvature="0" /></g></g></g>
         </svg>
